<?xml version="1.0" encoding="UTF-8"?>
<svg xmlns="http://www.w3.org/2000/svg" version="1.1" viewBox="0 0 245.8 26">
  <!-- Generator: Adobe Illustrator 28.7.1, SVG Export Plug-In . SVG Version: 1.2.0 Build 142)  -->
  <g>
    <g id="Laag_1">
      <g>
        <path d="M9.7.4H0v25.3h9.7c3.4,0,6.6-1.2,9-3.6,2.4-2.4,3.8-5.6,3.7-9,0-3.4-1.2-6.6-3.7-9C16.3,1.6,13.1.3,9.7.4ZM14.5,18.1c-1.2,1.3-3,2-4.8,2h-3.7V6h3.7c1.8,0,3.5.7,4.8,2,1.3,1.4,2,3.2,1.9,5.1,0,1.9-.6,3.7-1.9,5.1Z"/>
        <path d="M27.1,3.7c-2.4,2.5-3.8,5.8-3.7,9.3-.1,3.5,1.2,6.8,3.7,9.3,5,4.9,13,4.9,18,0,2.4-2.5,3.8-5.8,3.7-9.3.1-3.5-1.2-6.8-3.7-9.3-5-4.9-13-4.9-18,0ZM40.9,18.4c0,0-.1.1-.2.2-2.6,2.5-6.8,2.5-9.4-.2h0c-1.3-1.5-2-3.4-1.9-5.4,0-2,.6-3.9,1.9-5.4,0,0,.1-.1.2-.2,2.6-2.5,6.8-2.5,9.4.2,1.3,1.5,2,3.4,1.9,5.4,0,2-.6,3.9-1.9,5.4Z"/>
        <path d="M67.3,15.1c0,.2,0,.3-.2.4-.2.1-.5,0-.6-.2L58.3.4h-7.3v25.3h6v-14.7c0-.2,0-.3.2-.4.2-.1.5,0,.6.2l8.1,14.9h7.3V.4h-6v14.7Z"/>
        <path d="M92.8,15.1c0,.2,0,.3-.2.4-.2.1-.5,0-.6-.2L83.9.4h-7.3v25.3h6v-14.7c0-.2,0-.3.2-.4.2-.1.5,0,.6.2l8.1,14.9h7.3V.4h-6v14.7Z"/>
        <path d="M137.4.4h-6v18.1c.1.8-.5,1.5-1.3,1.6-.1,0-.3,0-.4,0h-5.9L116.9.4h-8.6l-8.9,25.3h6.5l1.7-5.1h10.1l1.7,5.1h12.3c1.6.1,3.1-.4,4.3-1.4,1.1-1.1,1.6-2.6,1.5-4.2V.4ZM109.2,15.5l2.9-8.7c0-.3.4-.4.7-.3.2,0,.3.2.3.3l2.9,8.7h-6.7Z"/>
        <path d="M146.7.4l-8.9,25.3h6.5l1.7-5.1h10.1l1.7,5.1h6.5L155.2.4h-8.6ZM147.6,15.5l2.9-8.7c0-.2.2-.3.3-.3.3,0,.6,0,.7.3l2.9,8.7h-6.7Z"/>
        <path d="M180,15.7c0,.2-.2.3-.3.3-.3,0-.6,0-.7-.3l-5.1-15.4h-9.1v25.3h6v-15.1c0-.2.1-.4.3-.4.2,0,.5,0,.6.3l5.1,15.2h5.6l5.1-15.2c0-.2.2-.3.4-.3.2,0,.4.2.4.4v15.1h6V.4h-9.1l-5.1,15.4Z"/>
        <polygon points="197.6 25.7 215.4 25.7 215.4 20.4 203.5 20.4 203.5 15.5 214.7 15.5 214.7 10.5 203.5 10.5 203.5 5.6 215.4 5.6 215.4 .4 197.6 .4 197.6 25.7"/>
        <path d="M230.4,10.9l-4.1-.7c-.9-.1-1.7-.4-2.5-.8-.5-.4-.7-.9-.7-1.5,0-.8.4-1.5,1-1.9.9-.6,1.9-.8,2.9-.8,1.2,0,2.4.3,3.4,1,.8.6,1.3,1.6,1.3,2.6h6c0-2.4-1-4.7-2.8-6.3-1.9-1.6-4.5-2.4-7.8-2.4-2.6-.2-5.2.6-7.2,2.2-1.7,1.3-2.7,3.4-2.6,5.6,0,1.7.5,3.4,1.7,4.7,1.5,1.3,3.3,2.1,5.2,2.3l4.1.7c1,.1,2,.5,2.9,1,.5.4.8,1,.8,1.7,0,.8-.4,1.5-1.1,2-1,.6-2.2.8-3.4.8-1.3,0-2.5-.3-3.6-1-.8-.6-1.3-1.6-1.3-2.6h-6c0,2.4,1,4.7,2.9,6.2,2.3,1.7,5.1,2.6,7.9,2.5,3.3,0,5.9-.7,7.7-2.2,1.7-1.3,2.8-3.4,2.7-5.6.1-1.8-.5-3.6-1.8-5-1.6-1.4-3.6-2.2-5.7-2.4Z"/>
        <rect x="239.7" y="19.7" width="6.2" height="6"/>
      </g>
    </g>
  </g>
</svg>