<svg width="258" height="40" viewBox="0 0 258 40" fill="none" xmlns="http://www.w3.org/2000/svg">
<g clip-path="url(#clip0_37886_1043)">
<path d="M11.4639 0.418091L12.3457 0.543215L13.7314 1.29396L16.7549 3.04569L20.4082 5.04768L21.1641 5.54817L21.7939 5.79842L23.1797 5.04768L24.9434 4.04669L25.5732 3.67131H25.9512V3.42107L26.707 3.04569H27.085V2.79545L27.7148 2.67032V2.42007L29.6045 1.41908L31.3682 0.418091L32.376 0.543215L34.5176 1.79445L38.0449 3.79644L40.9424 5.42305L43.084 6.67429L43.4619 6.79941L43.5879 7.04966V20.5631L40.3125 22.4399L37.2891 24.1916L34.3916 25.8183L34.0137 26.0685L33.8877 26.6941L30.6123 28.571L27.085 30.573L22.2979 33.3257L22.0459 33.4508L18.5186 31.4488L16.377 30.1976L13.2275 28.4459L10.4561 26.8193L9.57422 26.0685L6.4248 24.3168L4.2832 23.0655L0.755859 21.0635L0 20.5631V6.79941L2.01563 5.79842L4.2832 4.42206L5.66895 3.67131L7.30664 2.79545L8.31445 2.16983L9.19629 1.66933H9.57422V1.41908L11.4639 0.418091ZM11.7158 4.54718L8.81836 6.17379L5.79492 7.92553L3.7793 9.05165L3.65332 9.17677V18.4359L6.55078 20.0626L9.19629 21.564L10.2041 22.0645L10.3301 12.9305L11.5898 12.43L11.8099 12.2727L12.0938 12.0546L12.7236 11.8044L13.1725 11.3636L13.3535 11.1788L13.9834 11.0536L15.3691 10.1778L16.7549 9.42702L18.3926 8.42603V8.17578L15.3691 6.54917L13.4795 5.42305L11.7158 4.54718ZM31.6201 4.54718L28.7227 6.17379L26.0771 7.67528L25.3213 8.17578L25.6992 8.55115L26.959 9.17677L29.6045 10.6783L31.998 12.0546L33.7617 13.0556L33.8877 21.6892L34.6436 21.4389L36.2813 20.4379L36.9111 20.1877V19.9374L37.415 19.8123L38.0449 19.5621V19.3118L38.6748 19.0616L39.8086 18.5611L39.9346 18.3108V9.17677L37.667 7.92553L35.5254 6.67429L32.25 4.79743L31.6201 4.54718ZM23.6836 11.5541L23.5576 11.8044V18.4359L24.8174 19.1867L30.1084 22.1897H30.2344V15.1827L27.7148 13.8064L24.6914 12.0546L23.6836 11.5541ZM19.6523 11.9295L16.7549 13.5561L14.6133 14.8074L13.9834 15.1827V21.8143L15.4951 21.0635L17.7627 19.6872L19.1484 18.9364L19.9043 18.5611V11.9295H19.6523ZM21.542 21.564L19.4004 22.8153L16.125 24.6921L15.2432 25.1926L15.7471 25.568L18.3926 27.0695L21.416 28.8212L21.9199 29.0715L22.4238 28.9464L23.9355 28.0705L25.3213 27.3197L28.2188 25.6931L28.4707 25.4429L27.8408 24.9424L24.3135 22.9404L21.9199 21.564H21.542Z" fill="#EB873E"/>
<path d="M11.4639 0.418091L12.3457 0.543215L13.7314 1.29396L16.7549 3.04569L20.4082 5.04768L21.1641 5.54817L21.7939 5.79842L23.1797 5.04768L24.9434 4.04669L25.5732 3.67131H25.9512V3.42107L26.707 3.04569H27.085V2.79545L27.7148 2.67032V2.42007L29.6045 1.41908L31.3682 0.418091L32.376 0.543215L34.5176 1.79445L38.0449 3.79644L40.9424 5.42305L43.084 6.67429L43.4619 6.79941L43.5879 7.04966V20.5631L40.3125 22.4399L37.2891 24.1916L34.3916 25.8183L34.0137 26.0685L33.8877 26.6941L30.6123 28.571L27.085 30.573L22.2979 33.3257L22.0459 33.4508L18.5186 31.4488L16.377 30.1976L13.2275 28.4459L10.4561 26.8193L9.57422 26.0685L6.4248 24.3168L4.2832 23.0655L0.755859 21.0635L0 20.5631V6.79941L2.01563 5.79842L4.2832 4.42206L5.66895 3.67131L7.30664 2.79545L8.31445 2.16983L9.19629 1.66933H9.57422V1.41908L11.4639 0.418091ZM11.7158 4.54718L8.81836 6.17379L5.79492 7.92553L3.7793 9.05165L3.65332 9.17677V18.4359L6.55078 20.0626L9.19629 21.564L10.2041 22.0645L10.3301 12.9305L11.5898 12.43L11.8099 12.2727L12.0938 12.0546L12.7236 11.8044L13.1725 11.3636L13.3535 11.1788L13.9834 11.0536L15.3691 10.1778L16.7549 9.42702L18.3926 8.42603V8.17578L15.3691 6.54917L13.4795 5.42305L11.7158 4.54718ZM31.6201 4.54718L28.7227 6.17379L26.0771 7.67528L25.3213 8.17578L25.6992 8.55115L26.959 9.17677L29.6045 10.6783L31.998 12.0546L33.7617 13.0556L33.8877 21.6892L34.6436 21.4389L36.2813 20.4379L36.9111 20.1877V19.9374L37.415 19.8123L38.0449 19.5621V19.3118L38.6748 19.0616L39.8086 18.5611L39.9346 18.3108V9.17677L37.667 7.92553L35.5254 6.67429L32.25 4.79743L31.6201 4.54718ZM23.6836 11.5541L23.5576 11.8044V18.4359L24.8174 19.1867L30.1084 22.1897H30.2344V15.1827L27.7148 13.8064L24.6914 12.0546L23.6836 11.5541ZM19.6523 11.9295L16.7549 13.5561L14.6133 14.8074L13.9834 15.1827V21.8143L15.4951 21.0635L17.7627 19.6872L19.1484 18.9364L19.9043 18.5611V11.9295H19.6523ZM21.542 21.564L19.4004 22.8153L16.125 24.6921L15.2432 25.1926L15.7471 25.568L18.3926 27.0695L21.416 28.8212L21.9199 29.0715L22.4238 28.9464L23.9355 28.0705L25.3213 27.3197L28.2188 25.6931L28.4707 25.4429L27.8408 24.9424L24.3135 22.9404L21.9199 21.564H21.542Z" fill="#EB873E"/>
<path d="M120.308 7.1748H142.354L144.117 7.55018L146.133 8.55117L146.889 9.17679L147.771 10.428L148.4 11.9295L148.778 14.0566V17.8103L148.526 19.5621L148.022 20.6882L147.267 21.6892L146.385 22.3148L146.763 22.5651L147.771 23.3158L148.4 24.3168L148.652 25.1927L148.778 26.4439V33.2006L148.526 34.7021L148.022 36.2036L147.141 37.5799L146.133 38.5809L144.369 39.4568L142.983 39.8322L141.976 39.9573H120.308V7.1748ZM124.969 11.8044V35.2026L125.095 35.3277H141.22L142.605 34.8272L143.361 34.2016L143.865 33.2006L143.991 32.8252V26.9444L143.487 25.8183L142.605 25.0675L140.968 24.567H127.614V19.9375H141.22L142.228 19.6872L143.235 19.0616L143.865 17.9355L143.991 17.435V14.432L143.487 13.0556L142.479 12.1798L141.598 11.9295L139.708 11.8044H124.969Z" fill="#0B3B5C"/>
<path d="M92.2148 7.1748H109.348L111.363 7.6753L112.371 8.1758L113.631 9.30191L114.387 10.5532L114.891 12.1798L115.017 13.9315V33.3257L114.765 35.4528L114.135 36.9543L113.379 38.0804L112.497 38.8312L111.237 39.4568L109.852 39.8322L108.97 39.9573H92.5928L90.5771 39.5819L89.3174 39.0814L88.0576 38.0804L87.1758 36.7041L86.6719 35.2026L86.5459 34.577V12.5551L87.0498 10.6783L87.8057 9.42704L88.4355 8.67629L89.5693 7.92555L90.8291 7.42505L92.2148 7.1748ZM94.7344 11.8044L93.2227 11.9295L92.2148 12.43L91.7109 13.0556L91.333 13.8064L91.207 14.5571V32.8252L91.585 34.0765L92.5928 34.9523L93.7266 35.3277H107.836L109.096 34.8272L109.726 34.2016L110.104 33.576L110.229 32.7001V14.6822L110.104 13.5561L109.348 12.43L108.718 12.0546L108.214 11.9295L106.324 11.8044H94.7344Z" fill="#0B3B5C"/>
<path d="M52.7842 7.1748H57.3193L58.957 9.30191L62.9883 14.5571L64.8779 17.0596L66.6416 19.3118L68.1533 21.3138L69.4131 22.9404L70.5469 24.4419L72.3105 26.6941L73.4443 28.1956L75.46 30.8232L76.3418 31.9494L76.4678 7.1748H81.2549V39.8322L81.1289 39.9573H76.3418L75.8379 39.2065L73.8223 36.5789L72.0586 34.2016L70.4209 32.0745L68.6572 29.6971L66.8936 27.4449L65.1299 25.0675L63.1143 22.4399L61.3506 20.0626L60.0908 18.436L58.3271 16.0586L57.6973 15.3079L57.5713 39.9573H52.7842V7.1748Z" fill="#0B3B5C"/>
<path d="M195.39 7.1748H221.341L221.467 11.8044H200.177V35.3277H221.341V39.9573H195.39V7.1748Z" fill="#0B3B5C"/>
<path d="M224.616 7.04965H230.915L231.545 7.55015L232.931 9.30188L234.064 10.6782L235.702 12.6802L237.088 14.432L238.852 16.5591L239.859 17.8103L240.867 19.1867H241.371L241.623 18.6862L243.009 16.9344L245.276 14.1817L246.284 12.9305L247.292 11.5541H247.544L247.796 11.0536L249.434 9.05164L250.819 7.2999L250.945 7.17478H257.622L256.866 8.17577L255.48 9.9275L253.843 11.9295L252.457 13.6812L250.693 15.8083L249.686 17.0596L248.3 18.8113L246.032 21.564L244.772 23.1906L244.646 23.6911L246.662 26.1936L248.3 28.1956L249.182 29.3217L250.819 31.3237L252.205 33.0754L253.843 35.0774L254.851 36.3287L256.236 38.0804L257.37 39.4568L257.496 39.9573H251.071L249.56 38.2055L247.922 36.0784L246.536 34.4518L245.15 32.7001L243.387 30.573L242.001 28.8212L240.867 27.4449L239.481 25.6931L236.206 21.6892L235.324 20.563L233.687 18.5611L232.679 17.3098L231.293 15.5581L229.655 13.5561L228.647 12.3049L227.262 10.5531L226.002 9.05164L224.616 7.2999V7.04965Z" fill="#0B3B5C"/>
<path d="M11.4639 0.418091L12.3457 0.543215L13.7314 1.29396L16.7549 3.04569L20.4082 5.04768L21.1641 5.54818L21.7939 5.79842L23.1797 5.04768L24.9434 4.04669L25.5732 3.67132H25.9512V3.42107L26.707 3.04569H27.085V2.79545L27.7148 2.67032V2.42007L29.6045 1.41908L31.3682 0.418091L32.376 0.543215L34.5176 1.79445L38.0449 3.79644L40.9424 5.42305L43.084 6.67429L43.4619 6.79942L43.5879 7.04966V20.5631L40.3125 22.4399L37.2891 24.1917L34.3916 25.8183L33.8877 26.0685V21.6892L36.1553 20.4379L36.6592 20.3128L36.7852 20.0626L37.667 19.5621H38.0449V19.3118L39.4307 18.5611H39.8086L39.9346 9.17677L39.3047 8.92652L37.0371 7.67528L34.0137 5.92355L31.7461 4.67231L30.2344 5.42305L25.6992 8.05066L25.4473 8.17578L23.6836 7.29991L22.2979 6.54917H21.668L20.4082 7.29991L19.9043 7.42504V7.67528L18.3926 8.42603V8.17578L17.6367 7.92553L14.7393 6.29892L12.5977 5.04768L11.7158 4.67231L8.81836 6.29892L5.79492 8.05066L3.7793 9.17677V18.4359L5.9209 19.5621L8.94434 21.3138L10.2041 22.0645V26.4439L5.79492 23.9414L2.77148 22.1897L0.125977 20.6882L0 20.5631V6.79942L2.01562 5.79842L4.2832 4.42206L5.66895 3.67132L7.30664 2.79545L8.31445 2.16983L9.19629 1.66933H9.57422V1.41908L11.4639 0.418091Z" fill="#D8DEDE"/>
<path d="M166.415 7.1748H171.076L171.202 35.2026L192.492 35.3277V39.9573H166.541L166.415 39.8322V7.1748Z" fill="#0B3B5C"/>
<path d="M10.3301 13.1808L11.5898 13.8064L13.7314 15.0576L13.8574 15.1827L13.9834 22.3148V24.567L14.7393 24.8173L15.2432 25.0675V25.3178L15.999 25.568L18.3926 26.9444L21.416 28.6961L21.9199 28.9464L22.4238 28.8213L23.9355 27.9454L25.3213 27.1946L28.2188 25.568H28.4707V25.3178L29.9824 24.567L30.2344 24.3168L30.3604 15.0576L33.2578 13.431L33.7617 13.1808L33.8877 21.6892V26.6941L30.6123 28.571L27.085 30.573L22.2979 33.3257L22.0459 33.4508L18.5186 31.4489L16.377 30.1976L13.2275 28.4459L10.4561 26.8193L10.2041 26.569V14.8074L10.3301 13.1808Z" fill="#A74219"/>
<path d="M155.455 7.1748H160.116V39.9573H155.455V7.1748Z" fill="#0B3B5C"/>
<path d="M21.7939 10.8037L22.6758 10.9288L23.6836 11.5545V18.4363L26.833 20.188L29.8564 21.9397L30.1084 22.0649V24.5674L28.3447 25.4432L27.2109 24.6925L24.0615 22.9407L21.9199 21.6895L21.416 21.8146L18.2666 23.5664L16.125 24.8176L15.2432 25.193L13.9834 24.5674V21.8146L15.2432 21.0639L17.3848 19.8126L19.6523 18.5614H19.9043V11.9298L21.542 10.9288L21.7939 10.8037Z" fill="#BBC4C7"/>
<path d="M202.822 19.9375H221.089V24.442L220.963 24.5671H202.822L202.696 20.0626L202.822 19.9375Z" fill="#0B3B5C"/>
<path d="M236.08 25.5683L236.71 26.1939L238.348 28.1959L239.355 29.4472L239.104 30.0728L237.718 31.8245L236.08 33.8265L234.694 35.5782L233.309 37.2049L231.923 38.9566L231.041 39.9576H224.616L224.868 39.332L225.372 38.5812H225.624L225.75 38.2059H226.002L226.254 37.7054L227.136 36.5792L228.396 34.9526L230.159 32.8255L231.167 31.5743L232.553 29.8225L232.931 29.322H233.183L233.435 28.6964L233.938 28.0708H234.19L234.442 27.5703L235.324 26.4442L236.08 25.5683Z" fill="#0B3B5C"/>
<path d="M0 7.04965L1.38574 7.8004L3.65332 9.05164L3.7793 18.4359L5.9209 19.5621L8.94434 21.3138L10.2041 22.0645V26.4439L5.79492 23.9414L2.77148 22.1897L0.125977 20.6882L0 20.563V7.04965Z" fill="#BBC4C7"/>
<path d="M43.21 7.1748L43.4619 7.29993V20.5631L42.3281 21.3138L40.3125 22.4399L37.2891 24.1917L34.3916 25.8183L33.8877 26.0685V21.6892L36.1553 20.438L36.6592 20.3128L36.7852 20.0626L37.667 19.5621H38.0449V19.3118L39.4307 18.5611H39.8086L39.9346 9.05167L42.5801 7.55018L43.21 7.1748Z" fill="#BBC4C7"/>
<path d="M10.3301 13.1808L11.5898 13.8064L13.7314 15.0576L13.8574 15.1827V24.567L12.2197 25.568L10.708 26.4439H10.4561L10.3301 26.6941L10.2041 26.569V14.8074L10.3301 13.1808Z" fill="#D44A15"/>
<path d="M33.6357 13.1808H33.7617L33.8877 21.6892V26.4439L33.0059 26.1937L30.2344 24.6922L30.3604 15.0576L33.2578 13.431L33.6357 13.1808Z" fill="#D44914"/>
<path d="M3.40137 18.5605L4.2832 18.6857L7.68457 20.5625L9.82617 21.8138L10.2041 22.064V26.4434L5.79492 23.9409L2.77148 22.1891L0.125977 20.6877V20.3123L2.77148 18.9359L3.40137 18.5605Z" fill="#9FACAF"/>
<path d="M39.4307 18.5605L40.3125 18.6857L43.21 20.1872L43.3359 20.6877L39.9346 22.6896L37.667 23.9409L34.6436 25.6926L33.8877 26.068V21.6886L36.1553 20.4374L36.6592 20.3123L36.7852 20.062L37.667 19.5615H38.0449V19.3113L39.4307 18.5605Z" fill="#9FABAE"/>
</g>
<defs>
<clipPath id="clip0_37886_1043">
<rect width="258" height="40" fill="white"/>
</clipPath>
</defs>
</svg>
